<?xml version="1.0" encoding="UTF-8" standalone="no"?>
<!DOCTYPE svg PUBLIC "-//W3C//DTD SVG 1.1//EN" "http://www.w3.org/Graphics/SVG/1.1/DTD/svg11.dtd">
<svg width="100%" height="100%" viewBox="0 0 64 80" version="1.1" xmlns="http://www.w3.org/2000/svg" xmlns:xlink="http://www.w3.org/1999/xlink" xml:space="preserve" xmlns:serif="http://www.serif.com/" style="fill-rule:evenodd;clip-rule:evenodd;stroke-linejoin:round;stroke-miterlimit:2;">
    <path d="M60.6,28C60.3,25.7 59.6,23.5 58.6,21.5C57.9,20.1 57,18.8 55.8,17.8C54.3,16.5 52.4,15.8 50.4,15.8C49.5,15.8 48.6,15.9 47.7,16.2L50.3,10.6L50.6,9.9L50,9.6L44.9,6L44.7,5.8L40.4,5.8C39.5,5.6 38.6,5.2 37.9,4.6C35.5,2.7 32.6,1.7 29.5,1.7C26.4,1.6 23.4,2.6 21,4.7L12.2,13.3L12,13.5L6.9,18.5C6,19.4 5.3,20.4 4.8,21.6C3.8,23.7 3.1,25.8 2.8,28.1C1.8,33.4 2,38.8 3.3,44C4.8,49.5 7.4,54.6 10.9,59.1C15.8,65.3 22,70.5 29,74.5L31.2,75.8L31.7,76.1L32.2,75.8L34.4,74.5C41.4,70.5 47.5,65.2 52.6,59C56.1,54.5 58.7,49.4 60.2,43.9C61.3,38.7 61.5,33.3 60.6,28Z" style="fill:white;fill-rule:nonzero;"/>
    <path d="M27.4,22.2L19.5,22.2L18.8,34.1C19.2,34.2 19.7,34.3 20.1,34.5L27.4,22.2Z" style="fill-rule:nonzero;"/>
    <path d="M21.3,49.2L21.2,50.2L21.6,50.4C22.4,50.7 23.2,50.9 24.1,50.8C25,50.8 25.9,50.7 26.7,50.3L26.7,49.3C25.9,49.7 25,49.9 24.1,49.9C23.3,49.9 22.4,49.7 21.6,49.4L21.3,49.2Z" style="fill-rule:nonzero;"/>
    <path d="M21.6,52.9L21.3,52.7L21.2,52.7L21.2,53.7L21.6,53.9C22.4,54.2 23.2,54.4 24.1,54.3C24.8,54.3 25.5,54.2 26.1,54L26.1,53.1C25.5,53.3 24.8,53.4 24.1,53.4C23.2,53.5 22.3,53.3 21.6,52.9Z" style="fill-rule:nonzero;"/>
    <path d="M21.6,56.4L21.3,56.2L21.2,56.2L21.2,57.2L21.6,57.4C22.4,57.7 23.2,57.8 24,57.8C24.4,57.8 24.8,57.8 25.2,57.7L25.2,56.8C24.8,56.9 24.4,56.9 24,56.9C23.2,57 22.3,56.8 21.6,56.4Z" style="fill-rule:nonzero;"/>
    <path d="M30.5,5.8C31.2,5.9 31.8,6.2 32.4,6.5C33,6.8 33.6,7.2 34.1,7.6C34.9,8.3 35.8,8.9 36.7,9.4L36.7,7.9C36,7.5 35.4,7.1 34.7,6.7C34.1,6.3 33.4,6 32.8,5.7C32.1,5.4 31.4,5.2 30.7,5.1C30,5 29.3,5 28.5,5.1L28.4,5.1L28.4,5.7L28.5,5.7C29.1,5.6 29.8,5.7 30.5,5.8Z" style="fill-rule:nonzero;"/>
    <path d="M59.7,28.2C59.4,26 58.7,23.9 57.8,21.9C57.2,20.6 56.3,19.4 55.2,18.5C53.9,17.4 52.1,16.7 50.4,16.7C48.1,16.7 45.9,17.6 44.3,19.2L41.7,16.4L42.1,15.5L45.7,15.5L45.3,16.4L46.7,16.4L49.5,10.3L44.4,6.7L40.4,6.7C39.3,6.5 38.2,6 37.4,5.3C35.2,3.5 32.4,2.5 29.5,2.5C26.6,2.3 23.8,3.3 21.6,5.2L12.5,14.1L7.4,19.1C6.6,19.9 5.9,20.9 5.4,21.9C4.5,23.9 3.8,26 3.5,28.2C2.5,33.3 2.7,38.6 4,43.7C5.5,49.1 8,54.1 11.5,58.5C16.5,64.7 22.6,69.9 29.5,73.8L31.7,75.1L33.9,73.8C40.8,69.8 46.9,64.6 51.9,58.5C55.3,54.1 57.8,49.1 59.3,43.7C60.5,38.6 60.7,33.3 59.7,28.2ZM22.4,6.1C23,5.5 25,3.7 29.4,3.7C32,3.7 34.6,4.6 36.6,6.3C37.9,7.2 39,7.9 40.4,7.9L44,7.9L48,10.7L46.4,14.2L42.8,14.2C42.3,14.2 41.8,14 41.4,13.6C40.9,13.1 40.6,12.5 40.5,11.8L39.9,11.8C39.9,12.2 39.9,12.7 40.1,13.1C40.2,13.5 40.5,13.9 40.8,14.3C40.9,14.5 41.1,14.6 41.3,14.7L40.4,16.6L42.8,19.2L41,19.2L37.8,16.5L37.1,16.5L39.4,19.2L34.7,19.2L32,16.5L30.4,16.5C30.7,15.8 30.9,15 30.9,14.2L30.9,13L30.8,12.6C30.7,12 30.5,11.5 30.2,11C29.9,10.5 29.6,10 29.2,9.6L29.1,9.5L28.9,9.4L28.6,9.1C28.4,8.9 28.1,8.8 27.9,8.6C26.9,8 26,7.7 25.1,7.6L24.3,7.6L24.3,8.2C25.3,8.2 26.3,8.5 27.1,9.1C27.3,9.2 27.5,9.4 27.7,9.5L28.2,10C28.5,10.4 28.8,10.8 29,11.2C29.2,11.6 29.4,12.1 29.5,12.6L29.5,14.2C29.4,15.2 29.1,16.1 28.5,16.8L27.8,17.8L31.2,17.8L32.7,19.3L18.7,19.3L18.7,14.1L14.2,14.1L22.4,6.1ZM16.1,24.2C15.6,26.1 14,27.5 12.1,27.7L11.6,27.7C9.2,27.7 7.1,25.8 6.9,23.4L6.9,23.1C6.9,21.8 7.4,20.6 8.4,19.7L12.9,15.3L17.4,15.3L17.4,19.7L16.1,24.2ZM58,43.4C57.1,46.5 55.9,49.6 54.3,52.4L54,52.8L53.8,53.1L53.5,53.5L53.3,54L53.1,54.4L52.6,55.1L52.4,55.4L52,55.9L51.8,56.2L51.4,56.7L51.2,56.9L50.6,57.7L50.1,58.4C48,61 45.6,63.5 43,65.7C40.9,67.5 38.8,69.1 36.5,70.6C35.4,71.3 34.2,72.1 33,72.8L31.5,73.7L30,72.8C23.3,68.9 17.3,63.8 12.4,57.8L12,57.3L11.4,56.4L11.2,56L10.7,55.3L10.6,55.2L10.1,54.4C7.9,51 6.2,47.3 5.2,43.4C4,38.5 3.8,33.4 4.7,28.4C4.9,26.9 5.3,25.4 5.8,24C5.9,24.9 6.3,25.8 6.8,26.5C6.6,27.2 6.5,27.9 6.3,28.7C6.1,29.9 5.9,31.2 5.9,32.4L14.1,36.2C14.2,36 14.4,35.8 14.6,35.6C14.7,35.5 14.9,35.3 15,35.2L10,28.7C10.9,28.9 11.8,29 12.7,28.8L16.1,34.4C16.5,34.2 16.9,34.1 17.4,34L16.9,25.6C17.1,25.2 17.2,24.9 17.3,24.5L18.5,20.5L18.5,20.4L44.9,20.4L45.1,20.2C46.5,18.7 48.4,17.9 50.4,18C51.9,18 53.3,18.5 54.4,19.5C55.4,20.3 56.1,21.4 56.7,22.5C57.6,24.4 58.2,26.4 58.5,28.4C59.4,33.4 59.2,38.5 58,43.4Z" style="fill-rule:nonzero;"/>
    <circle cx="44.2" cy="10.4" r="0.7"/>
    <path d="M40.4,10.8C40.5,10.3 40.9,9.9 41.4,9.8L41.4,9.1L39.8,9.1L39.8,10.8L40.4,10.8Z" style="fill-rule:nonzero;"/>
    <path d="M56.8,28.7C56.1,24.6 54.4,19.7 50.4,19.7C48.5,19.6 46.7,20.6 45.8,22.2L31.2,22.2L21.2,35.2C21.3,35.3 21.4,35.4 21.6,35.5C21.8,35.7 22,36 22.1,36.2L29.3,32.9L28.7,35.5L22.7,37.4C22.8,37.8 22.9,38.3 22.9,38.8C22.7,38.8 22.5,38.7 22.3,38.6C22.1,38.5 21.9,38.4 21.7,38.4L21.4,38.3L20.8,38C20.3,37.8 19.8,37.6 19.3,37.6L16.9,37.6C16.4,37.7 15.9,37.8 15.4,38L14.8,38.3L14.5,38.4C14.3,38.5 14.1,38.6 13.9,38.6C13.7,38.7 13.5,38.7 13.3,38.8C13.3,38.3 13.4,37.8 13.5,37.4L5.8,34.9C5.8,35.8 5.8,36.7 5.9,37.6L5.9,38.9L6.7,38.9L7.2,39C7.7,39.1 8.3,39.3 8.7,39.6C9.7,40.1 10.8,40.4 11.9,40.4C13,40.4 14.1,40.2 15.1,39.6C15.3,39.5 15.6,39.4 15.8,39.3C16.3,39.1 16.9,39 17.5,39L18.2,39C18.7,39 19.3,39.1 19.8,39.3C20.1,39.4 20.3,39.5 20.6,39.6C21.6,40.1 22.7,40.4 23.8,40.4C24.9,40.4 26,40.2 27,39.6L27.5,39.4L27.2,40.6L28.3,40.4L28,41.7C27.4,41.8 26.9,42 26.4,42.3C25.5,42.8 24.6,43 23.6,43C22.6,43 21.7,42.8 20.8,42.3C19.8,41.8 18.7,41.5 17.6,41.5C16.5,41.5 15.4,41.7 14.4,42.3C13.5,42.8 12.6,43 11.6,43C10.6,43 9.7,42.8 8.8,42.3C8.3,42 7.8,41.8 7.2,41.7L7.6,41.7L7.2,41.7C6.9,41.7 6.7,41.6 6.4,41.6C6.5,41.9 6.5,42.2 6.6,42.5L7.4,42.5L8,42.7C8.3,42.8 8.7,43 9,43.1C10,43.6 11.1,43.9 12.2,43.9C13.3,43.9 14.4,43.7 15.4,43.1C16.3,42.6 17.2,42.4 18.2,42.4C19.2,42.4 20.1,42.6 21,43.1C22,43.6 23.1,43.9 24.2,43.9C25.3,43.9 26.4,43.7 27.4,43.1C27.7,42.9 28.1,42.8 28.4,42.7L27.8,45.3C27.5,45.4 27.2,45.6 26.9,45.7C26.1,46.2 25.1,46.4 24.2,46.4C23.3,46.4 22.3,46.2 21.5,45.7C20.5,45.2 19.4,44.9 18.3,44.9C17.2,44.9 16.1,45.1 15.1,45.7C14,46 13,46.2 12.1,46.2C11.2,46.2 10.2,46 9.4,45.5L8.8,45.2C8.4,45 7.9,44.9 7.5,44.8C7.7,45.3 7.8,45.7 8,46.2C8.8,48.2 9.7,50.1 10.8,52L10.9,52.3L11.1,52.7L11.3,53L11.5,53.4L11.7,53.7L11.9,54.1L12.3,54.7L12.6,55.1L12.8,55.4L13.1,55.8L13.3,56L13.8,56.7C18.6,62.5 24.4,67.5 31,71.2L31.6,71.6L32.2,71.2C38.8,67.4 44.6,62.5 49.3,56.6C49.6,56.3 49.8,55.9 50.1,55.6L50.2,55.5C50.4,55.2 50.7,54.8 50.9,54.5L51,54.4C51.5,53.7 52,52.9 52.4,52.2C53.6,50.2 54.5,48.2 55.3,46.1C55.5,45.7 55.6,45.3 55.7,44.9C55.2,45 54.8,45.1 54.4,45.3L54.3,45.3L53.7,45.6C52,46.5 50,46.5 48.3,45.6C46.3,44.6 43.9,44.6 41.8,45.6C40.1,46.5 38.1,46.5 36.4,45.6C36.1,45.5 35.8,45.3 35.5,45.2L34.5,40.4L35.7,40.6L35,37.4L38.8,33.7L41.3,35.5L45.2,31.6L49,35.6L51.5,33.8L57.1,39.4C57.1,39 57.2,38.6 57.2,38.2L57.2,37.8C57.4,34.7 57.3,31.7 56.8,28.7ZM49.5,29.3L49.6,29.1L51,29.1L51.4,27.7L51.6,27.7L52,29L53.4,29L53.5,29.2L52.3,30L52.7,31.4L52.5,31.5L51.3,30.7L50.1,31.5L49.9,31.4L50.3,30L49.5,29.3ZM46.5,29.1L46.3,29.2L45.1,28.4L44,29.2L43.8,29.1L44.2,27.7L43,26.9L43.1,26.7L44.5,26.7L45,25.3L45.2,25.3L45.6,26.7L47,26.7L47.1,26.9L46,27.8L46.5,29.1ZM40,31.5L39.8,31.6L38.6,30.8L37.4,31.6L37.2,31.5L37.6,30.1L36.4,29.3L36.5,29.1L37.9,29.1L38.3,27.7L38.5,27.7L38.9,29L40.3,29L40.4,29.2L39.2,30L40,31.5ZM34.8,47.5L33.4,47.2L35.3,56.4L31.6,54.9L27.9,56.4L29.8,47.2L28.4,47.5L30.2,38.7L29.1,38.9L31.4,26.7L31.6,26.7L34,38.9L32.9,38.7L34.8,47.5ZM32.3,57.6L32.6,66.3L30.5,66.3L30.8,57.6L30.8,56.2L31.5,55.9L32.2,56.2L32.3,57.6ZM29.8,60.1L29.8,60.7C29.1,60.7 28.4,60.9 27.8,61.2C26.7,61.8 25.4,62.1 24.1,62.1C22.9,62.1 21.6,61.9 20.6,61.3L20.5,61.2L20,61L19.9,61C19.7,60.9 19.6,60.9 19.4,60.8L19.9,60.4L20,60.3C20.3,60.4 20.5,60.5 20.8,60.6L21.1,60.8C22,61.2 23,61.4 23.9,61.4C25,61.4 26.1,61.2 27.1,60.6C27.9,60.2 28.8,59.9 29.7,59.9L29.8,60.1ZM42,60.7L42.3,60.5C42.5,60.4 42.8,60.3 43.1,60.2L43.8,60.8C43.6,60.9 43.4,60.9 43.3,61L43,61.2L42.9,61.3C41.8,61.9 40.6,62.1 39.4,62.1C38.1,62.1 36.8,61.8 35.7,61.2C35.1,60.9 34.4,60.7 33.7,60.7L33.7,59.9C34.6,59.9 35.5,60.1 36.3,60.6C37.3,61.1 38.4,61.4 39.5,61.4C40.2,61.3 41.1,61.1 42,60.7ZM27.3,46.6L26.8,49L28.3,48.7L26.2,58.5L30.1,56.6L30,57.9L29.9,59C28.8,59 27.8,59.2 26.9,59.8C26,60.2 25,60.4 24,60.4C23.1,60.4 22.2,60.2 21.4,59.8L21.2,59.7C20.9,59.6 20.6,59.4 20.3,59.3L20.3,47.3L19.5,48L19.5,59.6L18.7,60.3L18.7,47.5L20.2,46.3L20.3,46.3L20.6,46.4L20.7,46.5C20.9,46.6 21.2,46.7 21.5,46.8C22.3,47.1 23.1,47.2 24,47.2C25.2,47.4 26.3,47.1 27.3,46.6ZM35.9,46.6C36.9,47.1 38,47.4 39.1,47.4C39.9,47.4 40.8,47.3 41.6,47C41.9,46.9 42.1,46.8 42.4,46.7L42.8,46.5L42.9,46.5L44.4,47.7L44.4,60.4L43.6,59.7L43.6,48L42.7,47.3L42.7,59.4C42.4,59.5 42.1,59.6 41.8,59.8L41.6,59.9C40.8,60.3 39.9,60.5 39,60.5C38,60.5 37.1,60.3 36.2,59.8C35.3,59.3 34.2,59 33.2,59L33.1,57.9L33,56.6L36.9,58.5L36.6,57.2L34.8,48.7L36.3,49L35.9,46.6Z" style="fill-rule:nonzero;"/>
    <path d="M41.6,50.3L42,50.1L42,49.1L41.9,49.1L41.6,49.3C40.8,49.7 40,49.8 39.1,49.8C38.2,49.8 37.3,49.6 36.5,49.2L36.5,50.2C38.1,50.8 39.9,50.9 41.6,50.3Z" style="fill-rule:nonzero;"/>
    <path d="M41.6,52.9C40.8,53.3 40,53.4 39.1,53.4C38.4,53.4 37.7,53.3 37.1,53.1L37.1,54C37.7,54.2 38.4,54.3 39.1,54.3C39.9,54.3 40.8,54.2 41.6,53.9L42,53.7L42,52.7L41.9,52.7L41.6,52.9Z" style="fill-rule:nonzero;"/>
    <path d="M41.6,56.4C40.8,56.8 40,56.9 39.1,56.9C38.7,56.9 38.3,56.9 37.9,56.8L37.9,57.7C38.3,57.8 38.7,57.8 39.1,57.8C39.9,57.8 40.8,57.7 41.6,57.4L42,57.2L42,56.2L41.9,56.2L41.6,56.4Z" style="fill-rule:nonzero;"/>
    <path d="M10.4,24.2L10.9,24.6L16,17.6L16,16.7L15.2,16.7L10.4,24.2Z" style="fill-rule:nonzero;"/>
    <path d="M39.3,41.8L39.3,38.8L38.1,38.8L38.1,39.6L38.5,39.6L38.5,41.8L39.3,41.8Z" style="fill-rule:nonzero;"/>
    <path d="M41.8,41C42,41.6 42.6,42 43.2,41.9C43.6,41.8 44,41.5 44.1,41C44.1,40.7 43.9,40.4 43.6,40.2C43.8,40.1 44,39.8 44,39.5C43.9,38.9 43.4,38.5 42.8,38.6C42.4,38.7 42,39 41.9,39.5C41.9,39.8 42.1,40 42.3,40.2C42,40.4 41.7,40.7 41.8,41ZM42.9,39.9C42.7,39.9 42.6,39.8 42.6,39.6C42.6,39.4 42.7,39.3 42.9,39.3C43.1,39.3 43.2,39.4 43.2,39.6C43.2,39.7 43.1,39.9 42.9,39.9ZM42.9,41.2C42.7,41.2 42.6,41.1 42.6,40.9C42.6,40.7 42.7,40.6 42.9,40.6C43.1,40.6 43.2,40.7 43.2,40.9C43.2,41.1 43.1,41.2 42.9,41.2C42.9,41.3 42.9,41.3 42.9,41.2Z" style="fill-rule:nonzero;"/>
    <path d="M47.3,38.8L46.7,39.6C46.4,39.9 46.2,40.4 46.2,40.8C46.2,41.1 46.4,41.4 46.6,41.6C46.9,41.8 47.2,41.9 47.5,41.9C48.1,42 48.7,41.5 48.8,40.8L48.8,40.7C48.8,40.1 48.4,39.7 47.9,39.6L47.5,39.6L48.3,38.6L47.3,38.8ZM47.4,40.4C47.6,40.4 47.8,40.7 47.8,40.9C47.8,41.1 47.6,41.2 47.4,41.3C47.2,41.3 46.9,41.2 46.9,40.9C46.9,40.7 47,40.4 47.3,40.4L47.4,40.4Z" style="fill-rule:nonzero;"/>
    <path d="M50.7,41C50.8,41.6 51.5,42 52.1,41.9C52.5,41.8 52.9,41.5 53,41C53,40.7 52.8,40.4 52.5,40.2C52.7,40.1 52.9,39.8 52.9,39.5C52.8,38.9 52.3,38.5 51.7,38.6C51.3,38.7 50.9,39 50.8,39.5C50.8,39.8 51,40 51.2,40.2C50.9,40.3 50.7,40.7 50.7,41ZM51.8,39.9C51.6,39.9 51.5,39.8 51.5,39.6C51.5,39.4 51.6,39.3 51.8,39.3C52,39.3 52.1,39.4 52.1,39.6C52.1,39.7 52,39.9 51.8,39.9C51.9,39.9 51.9,39.9 51.8,39.9ZM51.8,41.2C51.6,41.2 51.5,41.1 51.5,40.9C51.5,40.7 51.6,40.6 51.8,40.6C52,40.6 52.1,40.7 52.1,40.9C52.2,41.1 52.1,41.2 51.8,41.2C51.9,41.3 51.9,41.3 51.8,41.2Z" style="fill-rule:nonzero;"/>
</svg>
